<svg xmlns="http://www.w3.org/2000/svg" width="18.41" height="16.9" viewBox="0 0 28.333 26.259"><defs><style>.a{fill:#fff;}</style></defs><path class="a" d="M28.322,14.839V1.432a2.462,2.462,0,0,0-2.434-2.454H2.445A2.462,2.462,0,0,0,.011,1.432V14.839c0,.039-.011.079-.011.121s.011.081.011.121v2.347a2.44,2.44,0,0,0,2.434,2.428h8.112v1.874a1.854,1.854,0,0,1-.676,1.447l-.772.642H6.826a.708.708,0,1,0,0,1.416H21.814a.708.708,0,1,0,0-1.416H19.224l-.772-.642a1.854,1.854,0,0,1-.676-1.447V19.857h8.112a2.44,2.44,0,0,0,2.434-2.428V15.081c0-.039.011-.08.011-.121s-.011-.082-.011-.121ZM2.445.393H25.889a1.045,1.045,0,0,1,1.018,1.039V14.265H1.427V1.431A1.045,1.045,0,0,1,2.445.393ZM17.085,23.82H11.249a3.252,3.252,0,0,0,.724-2.089V19.857h4.388v1.874a3.251,3.251,0,0,0,.724,2.089Zm8.8-5.379H2.445a1.023,1.023,0,0,1-1.018-1.013V15.681h25.48v1.747a1.023,1.023,0,0,1-1.018,1.013Zm0,0" transform="translate(0 1.023)"/></svg>